# xmcd
#
# Track frame offsets:
# 150
# 12920
# 24433
# 36325
# 47118
# 59483
# 71597
# 83388
# 94235
# 104767
# 117705
# 128696
# 140805
# 155316
# 165441
# 179126
# 192263
# 204792
# 216175
# 228752
# 240960
# 251884
# 262779
# 272792
# 283628
# 293602
# 303657
# 312252
#
# Disc length: 4348 seconds
#
#
# Revision: 0
# Processed by: cddbd v1.5.1PL2 Copyright (c) Steve Scherf et al.
# Submitted via: FreeRIP 2.931 
#
DISCID=9510fa1c
DTITLE=Carl Perkins - The Country Dollie Boy's Masters Dream
DYEAR=1900
DGENRE=Country
TTITLE0=Country Boy's Dream
TTITLE1=If I Could Come Back
TTITLE2=Home (That's Where The Heart Is)
TTITLE3=The Star Of The Show
TTITLE4=Poor Boy Blues
TTITLE5=Detroit City
TTITLE6=Dream On Little Dreamer
TTITLE7=Stateside
TTITLE8=Sweet Misery
TTITLE9=Unmitigated Gal
TTITLE10=Shine,Shine,Shine
TTITLE11=Without You
TTITLE12=You Can Take The Boy Out Of
TTITLE13=Almost Love
TTITLE14=An Old Fashioned Sing-A-Long
TTITLE15=Old Number One
TTITLE16=My Old Home Town
TTITLE17=Back To Tennessee
TTITLE18=It's You
TTITLE19=I'll Go Wrong Again
TTITLE20=Dear Abby
TTITLE21=Lake Country Cotton Country
TTITLE22=All You'll Need To Know
TTITLE23=Quite Like You
TTITLE24=Just As Long
TTITLE25=Just As Long (country)
TTITLE26=Baby I'm Hung Up On You
TTITLE27=Tom And Mary Jane
EXTD=
EXTT0=
EXTT1=
EXTT2=
EXTT3=
EXTT4=
EXTT5=
EXTT6=
EXTT7=
EXTT8=
EXTT9=
EXTT10=
EXTT11=
EXTT12=
EXTT13=
EXTT14=
EXTT15=
EXTT16=
EXTT17=
EXTT18=
EXTT19=
EXTT20=
EXTT21=
EXTT22=
EXTT23=
EXTT24=
EXTT25=
EXTT26=
EXTT27=
PLAYORDER=
